<svg width="951" height="611" viewBox="0 0 951 611" fill="none" xmlns="http://www.w3.org/2000/svg">
<rect width="951" height="611" fill="white"/>
<rect x="25" y="25" width="901" height="561" stroke="#FAAE89" stroke-width="50"/>
<rect x="75" y="74" width="801" height="461" stroke="#EA814F" stroke-width="50"/>
<rect x="125" y="124" width="701" height="361" stroke="#D05C26" stroke-width="50"/>
<rect x="175" y="174" width="601" height="261" stroke="#F15A24" stroke-width="50"/>
<rect y="305" width="951" height="306" fill="white"/>
<rect x="200" y="199" width="551" height="183" fill="#F4C94E"/>
<path d="M149.219 388.062V410H60.0625V248.844L149.219 248.562V268.812H81.4375V303.688H149.219V323.938H81.4375V388.062H149.219ZM215.875 248.562L195.344 248.844V410H216.719V309.312L267.625 410H284.5V248.844H262V338L215.875 248.562ZM485.875 410L429.625 325.062L483.062 248.844H452.406L409.375 317.75V248.844H388V410H409.375V338H413.594L452.688 410H485.875ZM544.656 268.812V317.75H589.938V268.812H544.656ZM612.438 410H589.938V338H544.656V410H523.281V248.844H612.438V410ZM679.094 248.562L658.562 248.844V410H679.938V309.312L730.844 410H747.719V248.844H725.219V338L679.094 248.562ZM849.812 410H828.438V269.375H793.562V248.844H883V269.375H849.812V410Z" fill="black"/>
</svg>
